<svg width="234" height="74" viewBox="0 0 234 74" fill="none" xmlns="http://www.w3.org/2000/svg">
<path d="M11.6862 11.6784L11.7271 11.7193C12.136 12.1284 12.5448 12.5375 12.9128 12.9467C25.4235 26.6936 25.5871 47.6414 13.3625 61.5929C12.831 62.2066 12.2995 62.7794 11.7271 63.3522L11.6045 63.2295C-2.54163 49.0324 -2.54163 25.9981 11.6454 11.7602L11.6862 11.6784Z" fill="#009E25"/>
<path d="M63.242 63.2704L63.2829 63.3113L63.242 63.3522C49.0141 77.5492 25.996 77.5492 11.7682 63.3522L11.6455 63.2295C12.2179 62.6567 12.7903 62.0839 13.4036 61.5929C27.3044 49.4007 48.2782 49.5234 62.0155 62.043C62.4243 62.493 62.8332 62.8613 63.242 63.2704Z" fill="#009E25"/>
<path d="M63.2423 11.6376L63.365 11.7603C77.552 26.0392 77.552 49.1144 63.3241 63.3523L63.2832 63.3933L63.2423 63.3523C62.8334 62.9432 62.4246 62.5341 62.0566 62.1249C49.5459 48.378 49.3824 27.4302 61.566 13.4787C62.0975 12.865 62.629 12.2922 63.2014 11.7194L63.2423 11.6376Z" fill="#009E25"/>
<path d="M63.242 11.6375L63.3647 11.7603L63.3238 11.8012C62.7514 12.374 62.179 12.9059 61.5658 13.4377C47.6649 25.63 26.6911 25.5072 12.9947 12.9877C12.5859 12.6195 12.177 12.2103 11.7682 11.8012L11.6455 11.7603L11.6864 11.7194C25.9552 -2.55946 49.0141 -2.55946 63.242 11.6375Z" fill="#009E25"/>
<path d="M106.655 69.8292C103.578 72.4555 100.705 72.4144 96.8069 72.4144H87.2456V42.2944H96.5196C100.131 42.2944 103.578 42.3355 106.163 45.2079C107.435 46.6032 107.969 48.2856 107.969 50.1732C107.969 52.7174 106.696 54.9744 104.48 56.2465C107.763 57.3955 109.446 59.8166 109.446 63.2635C109.405 65.6436 108.502 68.2288 106.655 69.8292ZM97.5455 49.0653H94.5909V53.7433H97.5045C99.1869 53.7433 100.541 53.2509 100.541 51.3222C100.582 49.4346 99.1459 49.0653 97.5455 49.0653ZM98.4483 60.1448H94.5909V65.6436H98.4072C100.336 65.6436 102.018 64.987 102.018 62.7711C102.018 60.5962 100.254 60.1448 98.4483 60.1448Z" fill="black"/>
<path d="M128.568 72.4144V69.9523H128.486C127.255 72.2913 124.342 73.1531 121.88 73.1531C114.903 73.1531 110.513 67.7774 110.513 61.0476C110.513 54.4409 115.068 48.9832 121.88 48.9832C124.342 48.9832 127.132 49.927 128.486 52.1429H128.568V49.7218H135.339V72.2913H128.568V72.4144ZM122.864 55.3437C119.582 55.3437 117.284 57.9289 117.284 61.1707C117.284 64.2894 119.705 66.8746 122.905 66.8746C126.188 66.8746 128.568 64.3715 128.568 61.0887C128.568 57.8058 126.188 55.3437 122.864 55.3437Z" fill="black"/>
<path d="M152.738 72.4145V60.1038C152.738 57.6007 152.246 55.4258 149.209 55.4258C146.091 55.4258 145.352 57.4776 145.352 60.1449V72.4145H138.581V49.845H144.901V52.2661H144.983C146.419 49.927 148.389 49.1063 151.138 49.1063C153.067 49.1063 155.447 49.845 156.924 51.076C159.099 52.8816 159.509 55.713 159.509 58.3803V72.4965H152.738V72.4145Z" fill="black"/>
<path d="M175.39 59.7755L183.638 72.4145H176.005L169.604 61.5401H169.522V72.4145H162.751V42.2944H169.522V58.011H169.604L175.882 49.845H183.884L175.39 59.7755Z" fill="black"/>
<path d="M100.623 32.7065C91.8828 32.7065 84.7837 25.8946 84.7837 17.072C84.7837 8.24934 91.8007 1.51953 100.541 1.51953C105.958 1.51953 110.759 4.02269 113.755 8.57763C114.74 10.0549 115.519 11.7374 115.765 13.5019H107.764C106.574 10.4242 103.865 8.24934 100.5 8.24934C95.617 8.24934 92.4573 12.3939 92.4573 17.0309C92.4573 21.6679 95.617 25.9767 100.541 25.9767C103.906 25.9767 106.409 23.8838 107.764 20.8883H115.806C114.042 27.9874 107.887 32.7065 100.623 32.7065Z" fill="black"/>
<path d="M170.466 19.8623V32.173H163.736V20.1906C163.736 17.7285 163.408 15.1843 160.289 15.1843C157.293 15.1843 156.555 17.2771 156.555 19.8623V32.173H149.825V19.9034C149.825 17.6054 149.291 15.1843 146.46 15.1843C143.341 15.1843 142.644 17.5233 142.644 20.1906V32.173H135.914V17.8516L120.895 39.6414H112.975L117.448 33.1989V9.60348H124.178V23.2683H124.383L133.657 9.60348H142.192V11.9835H142.274C143.588 9.68555 145.927 8.82381 148.471 8.82381C151.384 8.82381 153.6 10.3011 154.954 12.8453C156.596 10.3011 159.058 8.82381 162.095 8.82381C164.31 8.82381 166.444 9.48037 168.004 11.0808C170.589 13.707 170.466 16.4154 170.466 19.8623Z" fill="black"/>
<path d="M186.387 32.9116C184.089 32.9116 181.094 31.9268 179.945 29.7519H179.862V32.132H173.42V2.13506H180.15V11.4091C181.914 9.56247 184.171 8.86487 186.674 8.86487C188.316 8.86487 189.916 9.27522 191.434 9.97282C195.784 11.9836 197.754 16.0871 197.754 20.7651C197.713 27.495 193.404 32.9116 186.387 32.9116ZM185.484 15.1433C182.284 15.1433 179.904 17.6465 179.904 20.8062C179.904 24.0069 182.078 26.5922 185.361 26.5922C188.603 26.5922 190.983 24.048 190.983 20.8472C190.983 17.7696 188.644 15.1433 185.484 15.1433Z" fill="black"/>
<path d="M216.63 32.1319V29.7108H216.548C215.317 32.0088 212.404 32.9116 209.983 32.9116C203.048 32.9116 198.657 27.536 198.657 20.8472C198.657 14.2815 203.212 8.82381 209.983 8.82381C212.445 8.82381 215.235 9.76762 216.548 11.9835H216.63V9.60348H223.36V32.1319H216.63ZM210.967 15.1433C207.685 15.1433 205.428 17.7285 205.428 20.9293C205.428 24.048 207.849 26.5922 211.008 26.5922C214.291 26.5922 216.63 24.089 216.63 20.8472C216.63 17.5644 214.25 15.1433 210.967 15.1433Z" fill="black"/>
<path d="M226.52 32.132V2.13506H233.25V32.173H226.52V32.132Z" fill="black"/>
</svg>
